<svg width="39" height="39" viewBox="0 0 39 39" fill="none" xmlns="http://www.w3.org/2000/svg">
<path d="M19.5 9.59766C19.0796 9.59766 18.7383 9.93894 18.7383 10.3594C18.7383 10.7798 19.0796 11.1211 19.5 11.1211C19.9204 11.1211 20.2617 10.7798 20.2617 10.3594C20.2617 9.93894 19.9204 9.59766 19.5 9.59766Z" fill="white"/>
<path d="M6.85547 23.3086C7.2759 23.3086 7.61719 22.9673 7.61719 22.5469C7.61719 22.1264 7.2759 21.7852 6.85547 21.7852C6.43504 21.7852 6.09375 22.1264 6.09375 22.5469C6.09375 22.9673 6.43504 23.3086 6.85547 23.3086Z" fill="white"/>
<path d="M25.5938 1.98047C18.7362 1.98047 13.1078 6.70848 12.6725 12.6639C6.14165 12.9915 0 17.7007 0 24.0703C0 26.7322 1.05331 29.3113 2.9707 31.3548C3.35007 32.9187 2.88947 34.5764 1.7466 35.7193C1.52879 35.9371 1.46363 36.2647 1.58146 36.5494C1.69929 36.8339 1.9769 37.0195 2.28516 37.0195C4.45754 37.0195 6.55108 36.1677 8.10665 34.6665C9.62206 35.1831 11.5993 35.4961 13.4062 35.4961C20.2629 35.4961 25.8907 30.7693 26.3272 24.8151C27.9221 24.7443 29.5809 24.4497 30.8933 24.0025C32.4489 25.5036 34.5425 26.3555 36.7148 26.3555C37.0231 26.3555 37.3007 26.1698 37.4185 25.8853C37.5364 25.6006 37.4712 25.273 37.2534 25.0552C36.1105 23.9123 35.6499 22.2547 36.0293 20.6908C37.9467 18.6472 39 16.0681 39 13.4062C39 6.78793 32.3852 1.98047 25.5938 1.98047ZM13.4062 33.9727C11.6085 33.9727 9.55987 33.6198 8.18758 33.0738C7.89361 32.9565 7.55768 33.0336 7.34374 33.2672C6.42403 34.2726 5.22819 34.9736 3.92523 35.2958C4.64321 33.9203 4.8265 32.2987 4.3897 30.7621C4.35519 30.641 4.29121 30.5303 4.20344 30.4402C2.47529 28.6603 1.52344 26.398 1.52344 24.0703C1.52344 18.7026 6.96497 14.168 13.4062 14.168C19.4887 14.168 24.832 18.3976 24.832 24.0703C24.832 29.5306 19.7065 33.9727 13.4062 33.9727ZM34.7966 19.7761C34.7088 19.8666 34.6448 19.9773 34.6103 20.0981C34.1735 21.6346 34.3568 23.2562 35.0748 24.6318C33.7718 24.3098 32.576 23.6085 31.6563 22.6031C31.4423 22.3698 31.1064 22.2925 30.8124 22.4097C29.6231 22.8828 27.9265 23.2104 26.3248 23.2896C26.1023 20.409 24.6654 17.7016 22.2089 15.6914H32.1445C32.5653 15.6914 32.9062 15.3504 32.9062 14.9297C32.9062 14.509 32.5653 14.168 32.1445 14.168H19.8687C18.1396 13.2878 16.1981 12.7746 14.1998 12.6668C14.6375 7.55083 19.5806 3.50391 25.5938 3.50391C32.035 3.50391 37.4766 8.03851 37.4766 13.4062C37.4766 15.734 36.5247 17.9962 34.7966 19.7761Z" fill="white"/>
<path d="M19.5 21.7852H9.90234C9.48161 21.7852 9.14062 22.1261 9.14062 22.5469C9.14062 22.9676 9.48161 23.3086 9.90234 23.3086H19.5C19.9207 23.3086 20.2617 22.9676 20.2617 22.5469C20.2617 22.1261 19.9207 21.7852 19.5 21.7852Z" fill="white"/>
<path d="M19.5 26.3555H6.85547C6.43474 26.3555 6.09375 26.6965 6.09375 27.1172C6.09375 27.5379 6.43474 27.8789 6.85547 27.8789H19.5C19.9207 27.8789 20.2617 27.5379 20.2617 27.1172C20.2617 26.6965 19.9207 26.3555 19.5 26.3555Z" fill="white"/>
<path d="M32.1445 9.59766H22.5469C22.1261 9.59766 21.7852 9.93864 21.7852 10.3594C21.7852 10.7801 22.1261 11.1211 22.5469 11.1211H32.1445C32.5653 11.1211 32.9062 10.7801 32.9062 10.3594C32.9062 9.93864 32.5653 9.59766 32.1445 9.59766Z" fill="white"/>
</svg>
