<svg width="40" height="46" viewBox="0 0 40 46" fill="none" xmlns="http://www.w3.org/2000/svg">
<path d="M38.3684 29.6433H35.3831C34.082 28.1903 32.3575 27.3804 30.5647 27.3804C28.7719 27.3804 27.0473 28.1903 25.7463 29.6433H19.5094C18.8943 29.6442 18.2993 29.9015 17.8297 30.3695C17.3601 30.8375 17.0463 31.4862 16.9437 32.2006L11.2762 29.9747C10.8796 29.8191 10.4573 29.7766 10.044 29.8509C9.63081 29.9252 9.23847 30.1141 8.89936 30.402C8.56025 30.6899 8.28407 31.0687 8.09359 31.507C7.9031 31.9453 7.80376 32.4307 7.80374 32.9231V32.9733C7.8017 33.4983 7.9127 34.0153 8.12637 34.4759C8.34004 34.9366 8.6494 35.3259 9.02551 35.6075L20.3141 44.0693C21.0518 44.621 21.8781 44.9876 22.7414 45.1462C23.6048 45.3048 24.4866 45.252 25.3319 44.9911L35.201 41.9316H38.3684C38.5409 41.9316 38.7063 41.8509 38.8283 41.7073C38.9502 41.5636 39.0187 41.3687 39.0187 41.1656V30.4094C39.0187 30.2062 38.9502 30.0114 38.8283 29.8677C38.7063 29.724 38.5409 29.6433 38.3684 29.6433ZM37.7181 40.3995H35.1169C35.061 40.3995 35.0054 40.408 34.9514 40.4248L25.0004 43.5096C24.3285 43.7167 23.6276 43.7585 22.9414 43.6324C22.2552 43.5063 21.5984 43.215 21.012 42.7768L9.72379 34.315C9.53269 34.1713 9.37565 33.9728 9.26732 33.7382C9.159 33.5036 9.10293 33.2404 9.10436 32.9733V32.9231C9.10479 32.5061 9.24519 32.1062 9.49494 31.8107C9.74469 31.5152 10.0835 31.348 10.4375 31.3457C10.5827 31.3459 10.727 31.3738 10.8647 31.4282L17.1052 33.8796C17.3017 34.4401 17.6352 34.9191 18.0632 35.256C18.4912 35.5929 18.9946 35.7724 19.5094 35.7717H26.0125C26.185 35.7717 26.3504 35.691 26.4723 35.5474C26.5943 35.4037 26.6628 35.2088 26.6628 35.0057C26.6628 34.8025 26.5943 34.6077 26.4723 34.464C26.3504 34.3203 26.185 34.2396 26.0125 34.2396H19.5094C19.2203 34.2401 18.9394 34.127 18.7111 33.9182C18.4827 33.7095 18.3201 33.4169 18.2488 33.0869V33.085C18.2002 32.8589 18.196 32.6226 18.2366 32.3943C18.2772 32.166 18.3615 31.9516 18.4831 31.7674C18.6046 31.5833 18.7602 31.4342 18.9381 31.3317C19.116 31.2291 19.3113 31.1756 19.5094 31.1754H26.0125C26.0979 31.1754 26.1825 31.1556 26.2614 31.1171C26.3403 31.0786 26.412 31.0222 26.4723 30.9511L26.5382 30.8735C27.6069 29.6174 29.0549 28.9119 30.5646 28.9119C32.0743 28.9119 33.5223 29.6174 34.591 30.8735L34.6568 30.9511C34.7173 31.0222 34.789 31.0787 34.8679 31.1172C34.9468 31.1557 35.0314 31.1755 35.1169 31.1754H37.7181V40.3995Z" fill="white"/>
<path d="M10.8553 20.2109C10.8656 20.2142 10.876 20.2171 10.8865 20.2198C11.3146 20.3282 11.7512 20.3828 12.189 20.3826C12.219 20.3826 12.249 20.3816 12.2789 20.3811C12.4982 20.8945 12.8516 21.3114 13.2871 21.5705C13.7226 21.8297 14.2172 21.9173 14.6981 21.8205L15.4676 21.6664C15.918 22.0388 16.475 22.1865 17.0174 22.0775L18.5732 21.7658C18.7061 22.0484 18.872 22.3077 19.0659 22.5361L23.7644 28.071C23.8248 28.1422 23.8965 28.1986 23.9754 28.2371C24.0543 28.2756 24.1389 28.2954 24.2243 28.2954C24.3097 28.2954 24.3943 28.2756 24.4732 28.2371C24.5521 28.1986 24.6238 28.1422 24.6841 28.071L29.3826 22.5361C29.9315 21.8896 30.2398 21.0127 30.2398 20.0984C30.2398 19.1841 29.9315 18.3072 29.3826 17.6607C28.8338 17.0141 28.0894 16.6509 27.3133 16.6509C26.5371 16.6509 25.7927 17.0141 25.2439 17.6607L24.2241 18.8618L23.9491 18.5378C24.4139 18.0604 24.7259 17.4099 24.8332 16.6946C24.9406 15.9793 24.8368 15.2422 24.5391 14.6061C24.5559 14.5602 24.5688 14.5126 24.5777 14.4638L24.8478 12.9859C24.9633 12.3464 24.9514 11.684 24.8132 11.0508C24.675 10.4175 24.4142 9.83056 24.0511 9.33595L21.6431 6.07057C21.3003 5.60452 20.8746 5.23305 20.3963 4.98251C19.918 4.73197 19.3987 4.60851 18.8753 4.62087L9.04747 4.84112L0.940433 0.0804601C0.841284 0.0222385 0.731152 -0.00517952 0.620484 0.000806373C0.509816 0.00679227 0.402281 0.0459837 0.308078 0.114663C0.213875 0.183343 0.136129 0.279234 0.0822122 0.393241C0.0282956 0.507247 -3.25003e-06 0.63559 2.79959e-10 0.766095V12.2572C5.86087e-06 12.4046 0.0360991 12.5488 0.103952 12.6726C0.171804 12.7964 0.268536 12.8946 0.382546 12.9553L5.44197 15.6479L6.41899 17.0597C7.52217 18.6494 9.05032 19.7516 10.7539 20.1862C10.7877 20.1947 10.8214 20.2031 10.8553 20.2109ZM13.7817 20.1397C14.0533 20.0552 14.3197 19.9491 14.5792 19.8221C14.5891 19.9759 14.6112 20.1283 14.6452 20.2772L14.4805 20.3102C14.2375 20.3592 13.9878 20.2983 13.7812 20.1397H13.7817ZM16.7998 20.5671C16.6475 20.5977 16.4909 20.5749 16.3495 20.5016C16.2081 20.4283 16.088 20.3077 16.0043 20.1547C15.9372 20.0319 15.8947 19.8929 15.8798 19.7479C15.865 19.603 15.8782 19.456 15.9186 19.318C15.961 19.1619 16.041 19.0237 16.1489 18.9201L16.7726 18.5535L18.4281 18.7915C18.2836 19.2061 18.209 19.65 18.2087 20.0983C18.2087 20.1604 18.2104 20.2222 18.2131 20.2838L16.7998 20.5671ZM23.7647 20.4869C23.8251 20.558 23.8968 20.6145 23.9757 20.653C24.0546 20.6915 24.1391 20.7113 24.2245 20.7113C24.3099 20.7113 24.3945 20.6915 24.4734 20.653C24.5523 20.6145 24.624 20.558 24.6844 20.4869L26.1638 18.7441C26.3148 18.5662 26.4941 18.4251 26.6913 18.3289C26.8886 18.2326 27.1 18.1831 27.3136 18.1831C27.5271 18.1831 27.7385 18.2326 27.9358 18.3289C28.133 18.4251 28.3123 18.5662 28.4633 18.7441C28.6142 18.9219 28.734 19.1331 28.8157 19.3655C28.8974 19.5979 28.9395 19.8469 28.9395 20.0985C28.9395 20.35 28.8974 20.5991 28.8157 20.8314C28.734 21.0638 28.6142 21.275 28.4633 21.4528L24.2241 26.4458L19.9856 21.4529C19.7139 21.1331 19.5472 20.7103 19.5151 20.2594C19.4829 19.8086 19.5874 19.3589 19.8101 18.9902L21.8595 19.2847C22.1439 19.3256 22.4319 19.3133 22.713 19.2484L23.7647 20.4869ZM7.42746 16.0916L6.35371 14.5403C6.29011 14.4483 6.20921 14.375 6.1174 14.3262L1.30062 11.7627V2.00397L8.60997 6.29637C8.70421 6.35031 8.80776 6.37784 8.91253 6.37681L18.8997 6.15283C18.9143 6.15283 18.9288 6.15225 18.9433 6.15225C19.2692 6.15182 19.5913 6.23401 19.8877 6.39325C20.1842 6.55248 20.4481 6.78503 20.6615 7.07508L23.0698 10.3405C23.3008 10.6552 23.4668 11.0287 23.5547 11.4317C23.6427 11.8347 23.6502 12.2561 23.5767 12.6631L23.4525 13.3425C23.2319 13.2045 22.996 13.1033 22.7517 13.0416L21.5668 12.741L21.7037 11.9922C21.74 11.7936 21.7078 11.5861 21.6143 11.4154C21.5207 11.2447 21.3734 11.1248 21.2048 11.082C21.0362 11.0393 20.8601 11.0771 20.7152 11.1874C20.5703 11.2976 20.4685 11.4711 20.4322 11.6697L20.2953 12.4186L19.3641 12.1824L18.631 9.99449C18.5676 9.8055 18.4432 9.65388 18.2849 9.573C18.1267 9.49212 17.9477 9.48859 17.7873 9.56319C17.6268 9.63779 17.4981 9.78442 17.4295 9.97081C17.3608 10.1572 17.3578 10.3681 17.4211 10.5571L17.8357 11.7949L16.47 11.4485C16.3861 11.4258 16.2991 11.423 16.2142 11.4402C16.1294 11.4574 16.0482 11.4943 15.9755 11.5488C15.9028 11.6032 15.8401 11.6741 15.7908 11.7574C15.7416 11.8407 15.7069 11.9347 15.6888 12.0339C15.6707 12.1331 15.6694 12.2355 15.6852 12.3353C15.701 12.4351 15.7334 12.5301 15.7806 12.615C15.8278 12.6999 15.8889 12.7729 15.9602 12.8297C16.0316 12.8866 16.1118 12.9261 16.1963 12.9462L22.478 14.5395C22.8277 14.628 23.1349 14.8719 23.3357 15.2205C23.5365 15.5691 23.6154 15.9955 23.5561 16.4109C23.4967 16.8264 23.3036 17.1988 23.017 17.4508C22.7304 17.7027 22.3723 17.8147 22.0174 17.7635L16.736 17.0044C16.6095 16.9863 16.4812 17.0124 16.3671 17.0794L15.8666 17.3734C15.865 17.3741 15.8634 17.3744 15.8618 17.3751C15.7249 17.4334 15.5943 17.5106 15.4728 17.6049L14.3866 18.2432C13.4011 18.8204 12.28 18.9924 11.2019 18.732C11.1834 18.7259 11.1647 18.7206 11.1458 18.7164C11.106 18.7075 11.0663 18.6979 11.0273 18.6877C9.61254 18.3269 8.34336 17.4117 7.42705 16.0916H7.42746Z" fill="white"/>
</svg>
