<svg width="48" height="48" viewBox="0 0 48 48" fill="none" xmlns="http://www.w3.org/2000/svg">
<g clip-path="url(#clip0)">
<path d="M29.5 36.7001C30.1 34.7001 31.3 32.9001 32.9 31.5C35.9 29 37.8 25.2 37.8 21C37.8 13.2 31.3001 6.80001 23.3 7.20004C16.1999 7.50004 10.3999 13.5 10.1999 20.6C10.0999 25.0001 11.9999 28.9001 15.1 31.5C16.7999 32.9 17.9999 34.7 18.5999 36.7001H29.5Z" fill="#FFD15C"/>
<path d="M22.6999 36.9H23.5999L19.5999 22C19.6999 22 19.7999 22 19.8999 22C20.3999 22 20.8999 21.8 21.2999 21.4C21.4999 21.2 21.6999 21.1 21.9999 21.1C22.2999 21.1 22.4999 21.2 22.6999 21.4C23.4 22.2 24.6 22.2 25.2999 21.4C25.4999 21.2 25.6999 21.1 25.9999 21.1C26.1999 21.1 26.4999 21.2 26.7 21.4C27.1 21.8 27.4999 22 28.0999 22C28.2 22 28.2999 22 28.4 22L24.4999 36.9H25.4L29.4999 21.3C29.4999 21.1 29.4999 20.9 29.2999 20.8C29.1 20.7 28.8999 20.8 28.8 20.9C28.6 21.1 28.3999 21.2 28.2 21.2C27.9 21.2 27.7 21.1 27.4 20.9C27 20.5 26.6 20.3 26.1 20.3C25.5999 20.3 25.2 20.5 24.7999 20.9C24.3999 21.3001 23.7999 21.3001 23.4 20.9C23.1 20.5 22.6 20.3 22.0999 20.3C21.6 20.3 21.0999 20.5 20.7999 20.9C20.5999 21.1 20.2999 21.2 19.9999 21.2C19.8 21.2 19.5 21.1 19.3999 20.9C19.2999 20.8 19.0999 20.7001 18.9 20.8C18.7 20.9 18.6 21.1 18.7 21.3L22.6999 36.9Z" fill="white"/>
<path d="M20.8999 45.9C21.4 47.1 22.6 48 23.9999 48C25.3999 48 26.5999 47.1 27.1 45.9H20.8999Z" fill="#344A5E"/>
<path d="M27.7 46H20.4C19.3999 46 18.6 45.2 18.6 44.2V36.6H29.5V44.2C29.5 45.2 28.6999 46 27.7 46Z" fill="#344A5E"/>
<path d="M29.4 40.4H18.6C18 40.4 17.5 39.9 17.5 39.3C17.5 38.7 18 38.2001 18.6 38.2001H29.4C30 38.2001 30.4999 38.7 30.4999 39.3C30.4999 39.9 30 40.4 29.4 40.4Z" fill="#415A6B"/>
<path d="M29.4 43.9H18.6C18 43.9 17.5 43.4 17.5 42.8C17.5 42.2 18 41.7001 18.6 41.7001H29.4C30 41.7001 30.4999 42.2 30.4999 42.8C30.4999 43.3999 30 43.9 29.4 43.9Z" fill="#415A6B"/>
<path d="M24 0C23.5001 0 23 0.400031 23 1.00003V4.40006C23 4.90003 23.4 5.40009 24 5.40009C24.6 5.40009 25.0001 5.00006 25.0001 4.40006V1.00003C25.0001 0.400031 24.5 0 24 0Z" fill="#FFD15C"/>
<path d="M10.6001 6.10007C10.2001 5.70004 9.60007 5.70004 9.20013 6.10007C8.8002 6.5001 8.8001 7.1001 9.20013 7.50004L11.6001 9.90004C12.0002 10.3001 12.6002 10.3001 13.0001 9.90004C13.4 9.50001 13.4001 8.90001 13.0001 8.50007L10.6001 6.10007Z" fill="#FFD15C"/>
<path d="M7.50004 19.9H4.10001C3.60004 19.9 3.09998 20.3001 3.09998 20.9001C3.09998 21.4 3.50001 21.9001 4.10001 21.9001H7.50004C8.00001 21.9001 8.50007 21.5001 8.50007 20.9001C8.50007 20.4 8.00001 19.9 7.50004 19.9Z" fill="#FFD15C"/>
<path d="M11.6 31.9001L9.20005 34.3001C8.80002 34.7001 8.80002 35.3001 9.20005 35.7001C9.60008 36.1 10.2001 36.1001 10.6 35.7001L13 33.3001C13.4001 32.9 13.4001 32.3 13 31.9001C12.6 31.5001 12.0001 31.5001 11.6 31.9001Z" fill="#FFD15C"/>
<path d="M36.4 31.9C36 31.5 35.4 31.5 35 31.9C34.5999 32.3 34.5999 32.9 35 33.3L37.4 35.7C37.8 36.1 38.4 36.1 38.7999 35.7C39.1999 35.2999 39.2 34.6999 38.7999 34.3L36.4 31.9Z" fill="#FFD15C"/>
<path d="M43.9001 19.9H40.5C40.0001 19.9 39.5 20.3001 39.5 20.9001C39.5 21.4 39.9 21.9001 40.5 21.9001H43.9001C44.4 21.9001 44.9001 21.5001 44.9001 20.9001C44.9 20.4 44.5001 19.9 43.9001 19.9Z" fill="#FFD15C"/>
<path d="M37.4 6.10004L35 8.50004C34.5999 8.90007 34.5999 9.50007 35 9.90001C35.4 10.3 36 10.3 36.3999 9.90001L38.7999 7.50001C39.2 7.09997 39.2 6.49997 38.7999 6.10004C38.3999 5.7001 37.8 5.70001 37.4 6.10004Z" fill="#FFD15C"/>
</g>
<defs>
<clipPath id="clip0">
<rect width="48" height="48" fill="white"/>
</clipPath>
</defs>
</svg>
