<svg width="38" height="40" viewBox="0 0 38 40" fill="none" xmlns="http://www.w3.org/2000/svg">
<g clip-path="url(#clip0)">
<path d="M37.6767 27.4896L35.8928 25.6739C35.6061 25.382 35.1433 25.3841 34.859 25.6782C34.5746 25.9724 34.5766 26.4473 34.8632 26.7391L36.6471 28.5548C36.7896 28.7 36.9758 28.7724 37.1618 28.7724C37.3499 28.7724 37.5379 28.6984 37.6808 28.5505C37.9653 28.2563 37.9634 27.7814 37.6767 27.4896Z" fill="white"/>
<path d="M34.075 23.8161C33.7895 23.5232 33.3268 23.5232 33.0412 23.8161L33.0399 23.8174C32.7545 24.1104 32.7551 24.5847 33.0406 24.8777C33.1831 25.024 33.3701 25.0971 33.5571 25.0971C33.7445 25.0971 33.932 25.0237 34.0749 24.8771C34.3604 24.5841 34.3604 24.1092 34.075 23.8161Z" fill="white"/>
<path d="M27.8432 27.2749L34.9345 19.9979C36.0084 18.8957 36.0084 17.1023 34.9344 16.0001C34.5557 15.6114 34.0931 15.3605 33.6059 15.246C33.773 14.8774 33.8614 14.4729 33.8614 14.0544C33.8614 13.2993 33.5749 12.5894 33.0546 12.0555C32.6466 11.6367 32.1329 11.3663 31.5753 11.2689C31.8892 10.2874 31.6673 9.1634 30.9082 8.38445C30.4908 7.9562 29.9717 7.6952 29.4299 7.5998C29.5207 7.31712 29.5686 7.01862 29.5686 6.71232C29.5686 5.95722 29.282 5.24735 28.7618 4.7135C28.2415 4.17965 27.5497 3.88557 26.814 3.88557C26.3467 3.88557 25.8975 4.00452 25.4984 4.22787L25.4278 4.1501C24.5112 3.13925 23.2137 2.55957 21.8683 2.55957H16.1282C15.7246 2.55957 15.3972 2.8955 15.3972 3.30972V4.29342C15.3972 4.6871 15.4621 5.07035 15.5862 5.43072C15.2556 5.2898 14.8978 5.21577 14.529 5.21577C13.7932 5.21577 13.1015 5.50985 12.5812 6.0437C11.8217 6.8231 11.6 7.94795 11.9146 8.9297C11.3724 9.02487 10.8526 9.28602 10.4348 9.71465C9.91458 10.2486 9.62802 10.9584 9.62802 11.7135C9.62802 12.0192 9.67574 12.3172 9.76615 12.5993C9.20924 12.697 8.69604 12.9673 8.28837 13.3857C7.44957 14.2465 7.26591 15.529 7.73738 16.5744C7.23813 16.6915 6.7796 16.9495 6.40847 17.3303C5.33449 18.4324 5.33449 20.2258 6.40847 21.328L7.86681 22.8245L0.687369 30.1919C0.401899 30.4848 0.401899 30.9598 0.687369 31.2528C0.830105 31.3992 1.0172 31.4726 1.20423 31.4726C1.39125 31.4726 1.57835 31.3993 1.72109 31.2528L8.96981 23.8142C9.38019 24.0545 9.84588 24.183 10.3312 24.183C11.067 24.183 11.7587 23.889 12.279 23.355C12.8443 22.7751 13.1116 22.0035 13.0819 21.2421C13.1189 21.2437 13.156 21.2448 13.193 21.2448C13.8983 21.2448 14.6039 20.9692 15.1408 20.4183C15.661 19.8843 15.9476 19.1745 15.9476 18.4194C15.9476 18.3813 15.9464 18.3433 15.9449 18.3054C15.9815 18.3069 16.0181 18.3081 16.0548 18.3081C16.7602 18.3081 17.4657 18.0325 18.0026 17.4815C18.5228 16.9476 18.8094 16.2377 18.8094 15.4827C18.8094 15.4445 18.8082 15.4065 18.8067 15.3686C18.8433 15.3701 18.8799 15.3713 18.9166 15.3713C19.622 15.3713 20.3275 15.0957 20.8644 14.5447C21.8736 13.5091 21.9343 11.8634 21.0471 10.7541L25.8995 5.77452C26.1437 5.52387 26.4682 5.38595 26.8135 5.38595C27.1589 5.38595 27.4834 5.52387 27.7276 5.77452C27.9718 6.0251 28.1062 6.3581 28.1062 6.71247C28.1062 7.06677 27.9718 7.39992 27.7275 7.65042L27.0121 8.3846L24.4163 11.0484C24.1308 11.3414 24.1308 11.8164 24.4163 12.1094C24.559 12.2558 24.7461 12.3291 24.9331 12.3291C25.1202 12.3291 25.3073 12.2559 25.45 12.1094L28.0458 9.44555C28.5497 8.92835 29.3698 8.92827 29.8739 9.44547C30.3779 9.96275 30.3779 10.8042 29.8739 11.3215L29.1584 12.0558L27.2781 13.9854C26.9926 14.2783 26.9926 14.7533 27.2781 15.0463C27.4208 15.1927 27.6079 15.2661 27.7949 15.2661C27.982 15.2661 28.1691 15.1928 28.3118 15.0463L30.1921 13.1167C30.4363 12.8661 30.7609 12.7281 31.1061 12.7281C31.4514 12.7281 31.776 12.8661 32.0202 13.1167C32.2644 13.3673 32.3988 13.7003 32.3988 14.0547C32.3988 14.409 32.2644 14.7421 32.0201 14.9926L31.0381 16.0004L30.1398 16.9222C29.8543 17.2152 29.8543 17.6901 30.1398 17.9832C30.2825 18.1296 30.4696 18.2029 30.6566 18.2029C30.8437 18.2029 31.0308 18.1296 31.1735 17.9832L32.0725 17.0607C32.5765 16.5443 33.3961 16.5444 33.8999 17.0613C34.4039 17.5785 34.4039 18.4201 33.8999 18.9374L26.8086 26.2144C25.0279 28.0418 22.6614 29.0997 20.1448 29.1934C19.9598 29.2003 19.7841 29.279 19.6535 29.4137L13.1027 36.161C12.8177 36.4545 12.8185 36.9294 13.1046 37.2219C13.2472 37.3677 13.4339 37.4406 13.6205 37.4406C13.808 37.4406 13.9956 37.3671 14.1383 37.2199L18.9566 32.2572C20.1805 33.0629 21.6198 33.446 23.0833 33.3467L26.8544 37.2166C26.9971 37.363 27.1842 37.4364 27.3713 37.4364C27.5584 37.4364 27.7454 37.3631 27.8881 37.2166C28.1736 36.9237 28.1736 36.4487 27.8881 36.1557L23.8787 32.0407C23.7269 31.885 23.5159 31.8054 23.302 31.8234L23.0703 31.8429C22.0005 31.9329 20.9431 31.6925 20.0199 31.1616L20.4897 30.6777C23.2681 30.5019 25.8694 29.3005 27.8432 27.2749ZM11.2453 22.2942C11.0011 22.5449 10.6765 22.6828 10.3313 22.6828C9.98599 22.6828 9.66142 22.5449 9.41731 22.2942L7.44211 20.2674C6.93812 19.7502 6.93812 18.9086 7.44211 18.3913C7.68629 18.1407 8.01094 18.0027 8.35619 18.0027C8.70144 18.0027 9.02609 18.1407 9.27019 18.3913L11.2454 20.4182C11.7493 20.9354 11.7493 21.777 11.2453 22.2942ZM14.1073 19.3573C13.6032 19.8745 12.783 19.8745 12.2791 19.3573L10.3039 17.3304L9.32179 16.3225C8.8178 15.8053 8.8178 14.9637 9.32179 14.4465C9.56597 14.1959 9.89061 14.058 10.2358 14.058C10.5811 14.058 10.9057 14.1959 11.1498 14.4465L14.107 17.4813C14.107 17.4813 14.107 17.4813 14.1071 17.4813C14.3514 17.7319 14.4858 18.065 14.4858 18.4193C14.4858 18.7736 14.3514 19.1067 14.1073 19.3573ZM16.969 16.4205C16.465 16.9376 15.6448 16.9377 15.1409 16.4205L11.4682 12.6515C11.224 12.4009 11.0896 12.0679 11.0896 11.7135C11.0896 11.3592 11.224 11.0261 11.4682 10.7756C11.7202 10.517 12.0513 10.3877 12.3822 10.3877C12.713 10.3877 13.0437 10.5168 13.2956 10.775L14.9696 12.4928L16.9689 14.5445H16.969C17.2131 14.7951 17.3475 15.1281 17.3475 15.4824C17.3476 15.8368 17.2132 16.17 16.969 16.4205ZM19.8309 13.4836C19.3269 14.0008 18.5068 14.0008 18.0028 13.4836L14.3301 9.71465C14.3297 9.71427 14.3293 9.7139 14.3289 9.71345L13.6146 8.98047C13.1106 8.4632 13.1106 7.6217 13.6146 7.10442C13.8666 6.84575 14.1977 6.71645 14.5287 6.71645C14.8597 6.71645 15.1907 6.84575 15.4427 7.10442L19.8308 11.6075C20.075 11.8581 20.2094 12.1911 20.2094 12.5454C20.2095 12.8999 20.0752 13.2331 19.8309 13.4836ZM20.0231 9.68322L18.0153 7.62282C18.243 7.6727 18.4771 7.69917 18.7153 7.6991C18.7207 7.6991 18.7261 7.6991 18.7315 7.6991L20.7375 7.68942C21.1412 7.68747 21.467 7.35005 21.4651 6.93575C21.4632 6.52265 21.1363 6.18912 20.7342 6.18912C20.733 6.18912 20.7318 6.18912 20.7307 6.18912L18.7246 6.1988C18.7216 6.1988 18.7186 6.1988 18.7156 6.1988C18.2213 6.1988 17.7564 6.00192 17.4059 5.64395C17.0532 5.28365 16.859 4.8041 16.859 4.29335V4.0598H21.8681C22.8091 4.0598 23.7164 4.46517 24.3575 5.17212L24.3873 5.2049L20.0231 9.68322Z" fill="white"/>
</g>
<defs>
<clipPath id="clip0">
<rect width="37.4196" height="38.4" fill="white" transform="translate(0.473267 0.800049)"/>
</clipPath>
</defs>
</svg>
