<svg width="32" height="32" viewBox="0 0 32 32" fill="none" xmlns="http://www.w3.org/2000/svg">
<path d="M8.40546 17.1808H9.674V24.0467H10.8741V17.1808H12.1662V16.0563H8.40546V17.1808Z" fill="#1ABFB7"/>
<path d="M18.5531 18.0201C18.1563 18.0201 17.786 18.2368 17.4381 18.6657V16.0559H16.3594V24.0466H17.4381V23.4698C17.7991 23.9153 18.1691 24.1288 18.5531 24.1288C18.9822 24.1288 19.271 23.9029 19.415 23.4596C19.4874 23.2072 19.5244 22.8108 19.5244 22.2598V19.8891C19.5244 19.3253 19.4874 18.9318 19.415 18.6925C19.2713 18.246 18.9819 18.0201 18.5531 18.0201ZM18.445 22.3443C18.445 22.8825 18.2872 23.1477 17.9756 23.1477C17.7985 23.1477 17.6181 23.0629 17.4377 22.8822V19.2536C17.6181 19.0752 17.7985 18.9908 17.9756 18.9908C18.2869 18.9908 18.445 19.2664 18.445 19.8033V22.3443Z" fill="#1ABFB7"/>
<path d="M14.3465 22.6429C14.1072 22.9811 13.881 23.1477 13.6642 23.1477C13.5202 23.1477 13.438 23.0629 13.4118 22.8953C13.402 22.8606 13.402 22.729 13.402 22.4763V18.0928H12.323V22.8C12.323 23.2207 12.3594 23.5049 12.4183 23.6856C12.5266 23.9874 12.7663 24.1288 13.1133 24.1288C13.5104 24.1288 13.9176 23.8892 14.3465 23.3975V24.047H15.4261V18.0928H14.3465V22.6429Z" fill="#1ABFB7"/>
<path d="M15.2726 12.5924C15.6238 12.5924 15.7924 12.3138 15.7924 11.7573V9.22645C15.7924 8.6696 15.6238 8.39232 15.2726 8.39232C14.921 8.39232 14.7521 8.66993 14.7521 9.22645V11.7573C14.7521 12.3142 14.921 12.5924 15.2726 12.5924Z" fill="#1ABFB7"/>
<path d="M16 0C7.16342 0 0 7.16342 0 16C0 24.8366 7.16342 32 16 32C24.8366 32 32 24.8366 32 16C32 7.16342 24.8366 0 16 0ZM17.7796 7.48358H18.8667V11.9135C18.8667 12.1692 18.8667 12.3017 18.8798 12.3374C18.9037 12.5064 18.9895 12.5928 19.1355 12.5928C19.3535 12.5928 19.5824 12.4239 19.8243 12.0824V7.48358H20.9144V13.5002H19.8243V12.8442C19.3902 13.3418 18.9764 13.5831 18.5787 13.5831C18.2277 13.5831 17.9855 13.4407 17.8761 13.1362C17.8159 12.9539 17.7796 12.6661 17.7796 12.2415V7.48358ZM13.662 9.44548C13.662 8.80221 13.7713 8.33211 14.0031 8.02799C14.3046 7.61649 14.7292 7.41091 15.2726 7.41091C15.8186 7.41091 16.2429 7.61649 16.5444 8.02799C16.7729 8.33179 16.8822 8.80221 16.8822 9.44548V11.5524C16.8822 12.1921 16.7729 12.6664 16.5444 12.9673C16.2429 13.3778 15.8186 13.5831 15.2726 13.5831C14.7292 13.5831 14.3046 13.3778 14.0031 12.9673C13.7713 12.6664 13.662 12.1918 13.662 11.5524V9.44548ZM10.7464 5.42641L11.6048 8.59695L12.4294 5.42641H13.6521L12.1976 10.2305V13.5006H10.989V10.2305C10.8793 9.65107 10.6374 8.80221 10.2495 7.67607C9.9948 6.92673 9.72931 6.1751 9.47462 5.42641H10.7464ZM24.6133 24.5724C24.3946 25.5214 23.6185 26.222 22.6838 26.3264C20.4699 26.5736 18.2303 26.5749 15.999 26.5736C13.7687 26.5749 11.5279 26.5736 9.31454 26.3264C8.37991 26.222 7.6034 25.5218 7.38537 24.5724C7.07405 23.2207 7.07405 21.7446 7.07405 20.3527C7.07405 18.9607 7.07797 17.4849 7.38897 16.1329C7.60732 15.1835 8.38318 14.483 9.31781 14.3789C11.5315 14.1317 13.7719 14.1304 16.0029 14.1317C18.2333 14.1304 20.4738 14.1317 22.6874 14.3789C23.6221 14.4833 24.3986 15.1835 24.6176 16.1329C24.9279 17.4849 24.926 18.9607 24.926 20.3527C24.926 21.7446 24.9246 23.2207 24.6133 24.5724Z" fill="#1ABFB7"/>
<path d="M21.9891 18.0202C21.4372 18.0202 21.0087 18.2228 20.697 18.6304C20.4682 18.9316 20.3638 19.3971 20.3638 20.0332V22.1188C20.3638 22.7516 20.4807 23.2204 20.7105 23.5186C21.0218 23.9252 21.4516 24.1285 22.016 24.1285C22.5794 24.1285 23.0217 23.9154 23.3202 23.4829C23.4512 23.2918 23.5363 23.0754 23.5723 22.8364C23.5824 22.7284 23.5952 22.4891 23.5952 22.1411V21.9843H22.4949C22.4949 22.4164 22.4808 22.6563 22.4714 22.7149C22.4098 23.0034 22.2546 23.1474 21.9891 23.1474C21.6186 23.1474 21.4372 22.8724 21.4372 22.3218V21.2657H23.5952V20.0325C23.5952 19.3964 23.4875 18.9309 23.2613 18.6298C22.9598 18.2232 22.5306 18.0202 21.9891 18.0202ZM22.5169 20.3681H21.4379V19.8171C21.4379 19.2665 21.6189 18.9912 21.9793 18.9912C22.3362 18.9912 22.5169 19.2668 22.5169 19.8171V20.3681Z" fill="#1ABFB7"/>
</svg>
