<svg width="16" height="16" viewBox="0 0 16 16" fill="none" xmlns="http://www.w3.org/2000/svg">
<g clip-path="url(#clip0)">
<path d="M11.1839 9.53795L11.1785 9.58795C9.84426 8.85729 9.70471 8.75995 9.5324 9.04395C9.41287 9.24062 9.0646 9.68662 8.95963 9.81862C8.85345 9.94862 8.74788 9.95862 8.56768 9.86862C8.38565 9.76862 7.80136 9.55862 7.10968 8.87862C6.57089 8.34862 6.20927 7.69862 6.10249 7.49862C5.92471 7.16128 6.29664 7.11329 6.6352 6.40928C6.69588 6.26928 6.66493 6.15928 6.62004 6.05995C6.57453 5.95995 6.21231 4.97995 6.06062 4.58928C5.915 4.19995 5.76514 4.24928 5.65289 4.24928C5.30341 4.21595 5.04797 4.22128 4.82287 4.47862C3.84359 5.66128 4.09053 6.88128 4.92844 8.17862C6.57514 10.5466 7.45249 10.9826 9.05671 11.588C9.48992 11.7393 9.88491 11.718 10.1974 11.6686C10.5457 11.608 11.2695 11.188 11.4206 10.718C11.5753 10.248 11.5753 9.85795 11.5298 9.76795C11.4849 9.67795 11.366 9.62795 11.1839 9.53795Z" fill="white"/>
<path d="M13.0121 2.29913C8.34687 -2.6562 0.626082 0.9378 0.623048 7.92847C0.623048 9.3258 0.95615 10.6885 1.5908 11.8918L0.561768 15.9998L4.40548 14.8985C9.20177 17.7451 15.1211 13.9651 15.1236 7.93247C15.1236 5.81513 14.3712 3.82247 13.003 2.32513L13.0121 2.29913ZM13.9113 7.91047C13.9077 12.9991 8.82377 16.1771 4.80289 13.5798L4.58446 13.4371L2.30918 14.0871L2.91896 11.6571L2.77395 11.4071C0.271745 7.03047 3.14649 1.31047 7.88635 1.31047C9.49664 1.31047 11.008 2.00047 12.1463 3.25047C13.2839 4.4898 13.9113 6.15047 13.9113 7.91047Z" fill="white"/>
</g>
<defs>
<clipPath id="clip0">
<rect width="14.5618" height="16" fill="white" transform="translate(0.561768)"/>
</clipPath>
</defs>
</svg>
